<svg xmlns="http://www.w3.org/2000/svg" viewBox="0 0 1200 800" width="1200" height="800" role="img"><defs>
    <linearGradient id="wallGrad" x1="0" y1="0" x2="0" y2="1">
      <stop offset="0%" stop-color="#f5f1ea"/>
      <stop offset="100%" stop-color="#e9e3d8"/>
    </linearGradient>
    <linearGradient id="floorGrad" x1="0" y1="0" x2="0" y2="1">
      <stop offset="0%" stop-color="#957650"/>
      <stop offset="100%" stop-color="#a98963"/>
    </linearGradient>
    <linearGradient id="lightGrad" x1="0" y1="0" x2="0.6" y2="1">
      <stop offset="0%" stop-color="#ffffff" stop-opacity="0.68"/>
      <stop offset="100%" stop-color="#ffffff" stop-opacity="0"/>
    </linearGradient>
  </defs><rect width="1200" height="800" fill="url(#wallGrad)"/><rect y="470" width="1200" height="330" fill="url(#floorGrad)"/><rect y="456" width="1200" height="14" fill="#7d6b55" opacity="0.55"/><rect x="770" y="120" width="170" height="300" rx="4" fill="#fefdfa" stroke="#7d6b55" stroke-width="10"/><line x1="855" y1="120" x2="855" y2="420" stroke="#7d6b55" stroke-width="7"/><line x1="770" y1="270" x2="940" y2="270" stroke="#7d6b55" stroke-width="7"/><rect x="970" y="120" width="170" height="300" rx="4" fill="#fefdfa" stroke="#7d6b55" stroke-width="10"/><line x1="1055" y1="120" x2="1055" y2="420" stroke="#7d6b55" stroke-width="7"/><line x1="970" y1="270" x2="1140" y2="270" stroke="#7d6b55" stroke-width="7"/><polygon points="770,470 1160,470 980,800 490,800" fill="url(#lightGrad)"/><rect x="724" y="105" width="46" height="330" rx="8" fill="#f5f1ea" opacity="0.95"/><rect x="1140" y="105" width="46" height="330" rx="8" fill="#f5f1ea" opacity="0.95"/><ellipse cx="560" cy="665" rx="420" ry="118" fill="#efe6d6" opacity="0.9"/><rect x="245" y="495" width="425" height="125" rx="26" fill="#4a5d75"/><rect x="232" y="455" width="451" height="80" rx="28" fill="#4a5d75" opacity="0.88"/><circle cx="330" cy="500" r="9" fill="#f5f1ea" opacity="0.35"/><circle cx="430" cy="500" r="9" fill="#f5f1ea" opacity="0.35"/><circle cx="530" cy="500" r="9" fill="#f5f1ea" opacity="0.35"/><rect x="300" y="478" width="88" height="58" rx="12" fill="#f5f1ea" opacity="0.9"/><rect x="380" y="668" width="230" height="16" rx="8" fill="#7d6b55"/><rect x="400" y="684" width="12" height="40" fill="#7d6b55"/><rect x="578" y="684" width="12" height="40" fill="#7d6b55"/><rect x="452" y="644" width="40" height="26" rx="4" fill="#4a5d75" opacity="0.75"/><rect x="960" y="600" width="70" height="80" rx="8" fill="#7d6b55"/><path d="M995 600 C 950 540, 940 480, 975 450" stroke="#4a5d75" stroke-width="12" fill="none" stroke-linecap="round"/><path d="M995 600 C 1040 545, 1055 490, 1020 455" stroke="#4a5d75" stroke-width="12" fill="none" stroke-linecap="round"/><path d="M995 600 C 995 530, 998 490, 998 460" stroke="#4a5d75" stroke-width="12" fill="none" stroke-linecap="round"/><rect x="140" y="200" width="95" height="130" rx="3" fill="#fefdfa" stroke="#7d6b55" stroke-width="8"/><circle cx="187" cy="265" r="26" fill="#4a5d75" opacity="0.45"/><rect x="255" y="200" width="95" height="130" rx="3" fill="#fefdfa" stroke="#7d6b55" stroke-width="8"/><path d="M270 315 L 302 255 L 335 315 Z" fill="#4a5d75" opacity="0.45"/><rect x="370" y="200" width="95" height="130" rx="3" fill="#fefdfa" stroke="#7d6b55" stroke-width="8"/><rect x="392" y="240" width="52" height="52" fill="#4a5d75" opacity="0.4"/><rect x="740" y="470" width="10" height="200" fill="#7d6b55"/><path d="M710 470 L 780 470 L 765 410 L 725 410 Z" fill="#f5f1ea" stroke="#7d6b55" stroke-width="5"/><ellipse cx="745" cy="672" rx="38" ry="10" fill="#7d6b55"/></svg>
